<svg xmlns="http://www.w3.org/2000/svg" width="390.89" height="294.91" viewBox="0 0 390.89 294.91"><defs><style>.cls-1{fill:#fff;}</style></defs><title>Icon_volume</title><g id="Ebene_1" data-name="Ebene 1"><path class="cls-1" d="M215,242.08a9.68,9.68,0,0,1-7.14-16.21,84.93,84.93,0,0,0-.78-115.43,9.68,9.68,0,0,1,14.12-13.25,104.29,104.29,0,0,1,1,141.74A9.66,9.66,0,0,1,215,242.08Z" transform="translate(-4 -20.61)"/><path class="cls-1" d="M278.89,279a9.68,9.68,0,0,1-7.72-15.51,157.72,157.72,0,0,0-.72-190.78,9.68,9.68,0,0,1,15.37-11.78,177.09,177.09,0,0,1,.81,214.22A9.67,9.67,0,0,1,278.89,279Z" transform="translate(-4 -20.61)"/><path class="cls-1" d="M342,315.53a9.68,9.68,0,0,1-7.93-15.22,230.17,230.17,0,0,0-.67-264.42,9.68,9.68,0,1,1,15.81-11.17A249.53,249.53,0,0,1,350,311.39,9.67,9.67,0,0,1,342,315.53Z" transform="translate(-4 -20.61)"/></g><g id="Ebene_2" data-name="Ebene 2"><path class="cls-1" d="M136.2,73.21,84.86,117H23.76C13.06,117,4,123.87,4,134.56V200c0,10.69,9.06,22,19.76,22h61.1l51.35,41.57c5.05,4.15,11.8-.76,11.8-7.31V78.3C148,71.76,141.26,69.06,136.2,73.21Z" transform="translate(-4 -20.61)"/></g></svg>